<svg width="15" height="15" viewBox="0 0 15 15" fill="none" xmlns="http://www.w3.org/2000/svg">
<path d="M15 14.9999H0L0.0500428 14.7928C0.162637 14.3117 1.1447 10.0489 1.44496 9.51434C1.63887 9.17358 2.65221 8.84619 4.17848 8.39184C4.56631 8.27825 4.92911 8.16466 5.20434 8.07112C5.57965 7.94417 5.66097 7.89073 5.67348 7.87736C5.70475 7.83059 5.77356 7.68359 5.81109 7.24261L6.12385 7.26934C6.09258 7.66355 6.03003 7.92414 5.92994 8.06445L5.90492 8.09785C5.84237 8.17135 5.72352 8.24484 5.29817 8.38515C5.01668 8.47869 4.65388 8.59229 4.2598 8.70587C3.35905 8.97314 1.85154 9.42748 1.70767 9.68138C1.50751 10.0355 0.831944 12.775 0.394079 14.6592H14.5997C14.1618 12.775 13.4862 10.0422 13.2861 9.68138C13.1422 9.42748 11.6347 8.97982 10.7402 8.70587C10.3899 8.59897 10.0584 8.50542 9.79566 8.41188C9.43286 8.29161 9.23895 8.21144 9.14512 8.14462L9.09508 8.09785C8.98874 7.9709 8.91993 7.73705 8.8824 7.3562L9.19516 7.32278C9.23269 7.73704 9.30776 7.85063 9.32652 7.87068C9.3578 7.8974 9.47665 7.95755 9.88949 8.09118C10.1522 8.17804 10.4837 8.27826 10.8278 8.37848C12.354 8.83283 13.3674 9.16022 13.555 9.50098C13.8616 10.0355 14.8436 14.2917 14.95 14.7794L15 14.9999Z" fill="#414042"/>
<path d="M5.29793 8.39866L5.2041 8.07794C5.57941 7.95099 5.66073 7.89753 5.67324 7.88417L5.92971 8.07125L5.90469 8.10467C5.84839 8.17817 5.72329 8.25167 5.29793 8.39866Z" fill="#414042"/>
<path d="M7.4935 8.07815C6.97432 8.07815 6.48016 7.89106 6.09859 7.5503C5.49184 7.00909 5.12903 6.22067 4.92887 5.65942C4.80376 5.3053 4.74121 4.93113 4.74121 4.55028V2.8064H10.2521V4.55028C10.2521 4.93113 10.1895 5.3053 10.0581 5.65942C9.85798 6.22067 9.49517 7.00909 8.88842 7.5503C8.50685 7.89106 8.01269 8.07815 7.4935 8.07815ZM5.05397 3.14048V4.55028C5.05397 4.89104 5.11027 5.22511 5.22286 5.54583C5.41052 6.07367 5.7483 6.80198 6.30501 7.29642C6.95556 7.87771 8.04396 7.87771 8.68825 7.29642C9.24496 6.80198 9.58274 6.06699 9.7704 5.54583C9.88299 5.23179 9.93929 4.89772 9.93929 4.55028V3.14048H5.05397Z" fill="#414042"/>
<path d="M10.2772 3.14035H4.71631V2.97331C4.71631 1.33632 5.9611 0 7.49988 0C9.03241 0 10.2834 1.32964 10.2834 2.97331V3.14035H10.2772ZM5.02907 2.80627H9.95818C9.87686 1.42987 8.80096 0.334079 7.49362 0.334079C6.18628 0.34076 5.11039 1.42987 5.02907 2.80627Z" fill="#414042"/>
</svg>
