<svg width="10" height="10" viewBox="0 0 10 10" fill="none" xmlns="http://www.w3.org/2000/svg">
<path d="M9.99551 7.88542C10.0163 8.05209 9.96428 8.18751 9.84978 8.31251L8.44454 9.70834C8.38209 9.78125 8.29881 9.84377 8.19472 9.88543C8.09063 9.93752 7.99695 9.96876 7.89286 9.97918C7.88245 9.97918 7.86163 9.97919 7.8304 9.98961C7.79918 9.98961 7.74713 10 7.69508 10C7.55976 10 7.34117 9.97919 7.0393 9.92711C6.73744 9.88544 6.37312 9.77084 5.93593 9.58334C5.49875 9.40626 5.00952 9.13543 4.45783 8.77084C3.90615 8.40626 3.32323 7.91666 2.69868 7.29166C2.20945 6.80208 1.79308 6.33333 1.4704 5.89583C1.14772 5.44792 0.887487 5.04166 0.689712 4.65625C0.491938 4.28125 0.346212 3.93751 0.24212 3.62501C0.148437 3.32293 0.0755728 3.05208 0.0443453 2.83333C0.0131178 2.61458 -0.00770151 2.4375 0.00270765 2.3125C0.0131168 2.1875 0.0131171 2.1146 0.0131171 2.10419C0.0235262 2.00002 0.0547539 1.90626 0.1068 1.80209C0.158846 1.69793 0.210891 1.6146 0.283756 1.5521L1.68899 0.145849C1.78268 0.0520986 1.89718 0 2.0325 0C2.12618 0 2.20945 0.0312678 2.27191 0.0833511C2.34477 0.135434 2.40723 0.197937 2.44886 0.28127L3.58346 2.43753C3.64592 2.55211 3.66673 2.67709 3.63551 2.81251C3.60428 2.94793 3.55224 3.06253 3.45855 3.15628L2.93809 3.67711C2.92769 3.68753 2.90687 3.71875 2.89646 3.75C2.88605 3.78125 2.87564 3.81252 2.87564 3.83336C2.90687 3.97919 2.96932 4.15626 3.063 4.34376C3.14628 4.51043 3.2816 4.71877 3.45855 4.96877C3.63551 5.20835 3.88533 5.4896 4.20801 5.81251C4.5307 6.13543 4.81174 6.38544 5.05115 6.57294C5.30097 6.75003 5.50916 6.88542 5.6757 6.96875C5.84225 7.05208 5.96716 7.10419 6.06084 7.12502L6.19616 7.15627C6.20657 7.15627 6.2378 7.14584 6.26903 7.13542C6.30025 7.125 6.32107 7.11461 6.34189 7.09377L6.94562 6.47916C7.07053 6.36458 7.21626 6.31253 7.39322 6.31253C7.51813 6.31253 7.61181 6.33336 7.67426 6.37502H7.68467L9.72487 7.58336C9.88101 7.62503 9.97469 7.73959 9.99551 7.88542Z" fill="#414042"/>
</svg>
