<svg width="15" height="15" viewBox="0 0 15 15" fill="none" xmlns="http://www.w3.org/2000/svg">
<path d="M7.84735 15L7.29442 12.9159C6.95416 12.9017 6.6068 12.8592 6.27363 12.7812L5.18904 14.6456L2.43856 13.0506L3.52316 11.1862C3.28923 10.931 3.07656 10.6616 2.89934 10.371L0.815219 10.9239L0 7.84735L2.08412 7.29444C2.0983 6.95418 2.14083 6.60682 2.21881 6.27365L0.354442 5.18903L1.94943 2.43856L3.8138 3.52317C4.069 3.28924 4.33837 3.07657 4.62902 2.89935L4.07609 0.815233L7.15265 0L7.70558 2.08412C8.04584 2.0983 8.3932 2.14083 8.72637 2.21881L9.81096 0.354442L12.5614 1.94943L11.4768 3.8138C11.7108 4.06191 11.9234 4.33839 12.1007 4.62903L14.1848 4.07608L15 7.15265L12.9159 7.70556C12.9017 8.04582 12.8592 8.39318 12.7812 8.72635L14.6456 9.81097L13.0506 12.5614L11.1862 11.4768C10.931 11.7108 10.6616 11.9234 10.371 12.1006L10.9239 14.1848L7.84735 15ZM6.09641 12.37L6.22401 12.4055C6.62098 12.5047 7.02505 12.5614 7.42911 12.5685H7.5638L8.09546 14.5675L10.4844 13.9296L9.95274 11.9305L10.0662 11.8596C10.4135 11.654 10.7396 11.4059 11.0302 11.1224L11.1295 11.0302L12.923 12.0652L14.1635 9.92437L12.37 8.88233L12.4055 8.75474C12.5047 8.36485 12.5614 7.95369 12.5685 7.54963V7.41494L14.5676 6.88327L13.9296 4.49434L11.9305 5.026L11.8596 4.91256C11.6541 4.5652 11.406 4.23913 11.1224 3.94849L11.0302 3.84923L12.0723 2.05578L9.93148 0.815233L8.88941 2.60869L8.76182 2.57325C8.36484 2.47401 7.96078 2.41731 7.55671 2.41022H7.42202L6.89036 0.411165L4.50142 1.04913L5.03308 3.04819L4.91966 3.1191C4.57231 3.32468 4.24622 3.57277 3.95558 3.85633L3.85633 3.94849L2.06285 2.90645L0.822306 5.04725L2.61578 6.08933L2.58034 6.21692C2.4811 6.60681 2.42439 7.01088 2.4173 7.42203V7.55672L0.418242 8.08839L1.05624 10.4773L3.05529 9.94566L3.12618 10.0591C3.33176 10.4064 3.57987 10.7325 3.86342 11.0231L3.95558 11.1224L2.91352 12.9159L5.05435 14.1564L6.09641 12.37ZM7.5 9.98819C6.39414 9.98819 5.38752 9.25095 5.08979 8.13092C4.73535 6.79822 5.5293 5.43004 6.862 5.08268C8.18762 4.72824 9.56285 5.52219 9.91021 6.85489C10.2647 8.18759 9.4707 9.55577 8.138 9.90313C7.92533 9.95984 7.71267 9.98819 7.5 9.98819ZM7.5 5.35206C7.31569 5.35206 7.13138 5.37335 6.95416 5.42298C5.81286 5.7278 5.13233 6.89746 5.43715 8.03876C5.74197 9.18006 6.91163 9.86056 8.05293 9.55574C9.19424 9.25092 9.87476 8.07421 9.56994 6.94C9.31475 5.99009 8.44282 5.35206 7.5 5.35206Z" fill="#414042"/>
</svg>
