<svg width="21" height="15" viewBox="0 0 21 15" fill="none" xmlns="http://www.w3.org/2000/svg">
<path d="M16.9718 8.36785H13.6572C13.5592 8.36785 13.4823 8.28863 13.4823 8.18782C13.4823 8.087 13.5592 8.00779 13.6572 8.00779H16.9718C18.9998 8.00779 20.6502 6.30832 20.6502 4.21997V1.65634H3.13969V4.21997C3.13969 4.76726 3.25158 5.29294 3.46836 5.78982C3.51032 5.88344 3.46834 5.98425 3.38443 6.02745C3.29352 6.07066 3.19563 6.02746 3.15367 5.94104C2.91591 5.40095 2.79004 4.82485 2.79004 4.22715V1.4835C2.79004 1.38268 2.86696 1.30347 2.96486 1.30347H20.825C20.9229 1.30347 20.9998 1.38268 20.9998 1.4835V4.22715C20.9928 6.50994 19.1886 8.36785 16.9718 8.36785Z" fill="#414042"/>
<path d="M10.1327 8.36767H6.81803C6.6502 8.36767 6.48236 8.36048 6.31453 8.33888C6.21663 8.32447 6.15369 8.23806 6.16069 8.13724C6.17467 8.03643 6.26558 7.97161 6.35649 7.97882C6.50334 8.00042 6.6572 8.00761 6.81105 8.00761H10.1257C10.2236 8.00761 10.3006 8.08682 10.3006 8.18764C10.3006 8.28845 10.2306 8.36767 10.1327 8.36767Z" fill="#414042"/>
<path d="M20.4822 13.3296H4.81789C4.71999 13.3296 4.64307 13.2504 4.64307 13.1495C4.64307 13.0487 4.71999 12.9695 4.81789 12.9695H20.3074V5.84751C20.3074 5.74669 20.3843 5.66748 20.4822 5.66748C20.5801 5.66748 20.657 5.74669 20.657 5.84751V13.1495C20.657 13.2504 20.5801 13.3296 20.4822 13.3296Z" fill="#414042"/>
<path d="M13.147 9.97379H10.6365C10.2589 9.97379 9.95117 9.65694 9.95117 9.27528V8.12308C9.95117 7.73421 10.2589 7.42456 10.6365 7.42456H13.147C13.5246 7.42456 13.8323 7.74141 13.8323 8.12308V9.27528C13.8323 9.65694 13.5246 9.97379 13.147 9.97379ZM10.6365 7.77743C10.4547 7.77743 10.3008 7.92866 10.3008 8.11589V9.26807C10.3008 9.4553 10.4477 9.60652 10.6365 9.60652H13.147C13.3288 9.60652 13.4826 9.4553 13.4826 9.26807V8.11589C13.4826 7.92866 13.3358 7.77743 13.147 7.77743H10.6365Z" fill="#414042"/>
<path d="M13.3848 1.65629H10.4058C10.3079 1.65629 10.231 1.57708 10.231 1.47626V0.849737C10.231 0.381659 10.6016 0 11.0561 0H12.7414C13.196 0 13.5666 0.381659 13.5666 0.849737V1.47626C13.5596 1.57708 13.4757 1.65629 13.3848 1.65629ZM10.5806 1.29623H13.21V0.849737C13.21 0.583292 13.0002 0.36006 12.7345 0.36006H11.0491C10.7904 0.36006 10.5736 0.576091 10.5736 0.849737V1.29623H10.5806Z" fill="#414042"/>
<path d="M4.81819 13.6104H1.82518C1.72728 13.6104 1.65036 13.5312 1.65036 13.4304V12.055C0.629381 11.4429 0 10.3195 0 9.10247C0 7.21576 1.48951 5.6819 3.32168 5.6819C5.15384 5.6819 6.64335 7.21576 6.64335 9.10247C6.64335 10.3195 6.01399 11.4429 4.99301 12.055V13.4304C4.99301 13.5312 4.91609 13.6104 4.81819 13.6104ZM2.00001 13.2504H4.64336V11.9469C4.64336 11.8821 4.67833 11.8173 4.73428 11.7885C5.69232 11.2484 6.2937 10.2187 6.2937 9.09526C6.2937 7.41018 4.95804 6.03475 3.32168 6.03475C1.68531 6.03475 0.34965 7.41018 0.34965 9.09526C0.34965 10.2187 0.944063 11.2484 1.9091 11.7885C1.96504 11.8173 2.00001 11.8821 2.00001 11.9469V13.2504Z" fill="#414042"/>
<path d="M3.32161 14.9999C2.66427 14.9999 2.13281 14.4527 2.13281 13.7758C2.13281 13.6749 2.20974 13.5957 2.30764 13.5957C2.40554 13.5957 2.48246 13.6749 2.48246 13.7758C2.48246 14.251 2.86007 14.6399 3.32161 14.6399C3.78315 14.6399 4.16078 14.251 4.16078 13.7758C4.16078 13.6749 4.2377 13.5957 4.3356 13.5957C4.43351 13.5957 4.51043 13.6749 4.51043 13.7758C4.51742 14.4455 3.97895 14.9999 3.32161 14.9999Z" fill="#414042"/>
<path d="M3.3218 12.7466C3.2239 12.7466 3.14697 12.6673 3.14697 12.5665V9.88047C3.14697 9.77965 3.2239 9.70044 3.3218 9.70044C3.4197 9.70044 3.49662 9.77965 3.49662 9.88047V12.5665C3.49662 12.6601 3.4197 12.7466 3.3218 12.7466Z" fill="#414042"/>
<path d="M3.58031 10.06H3.06984C2.53138 10.06 2.09082 9.60635 2.09082 9.05186C2.09082 8.95104 2.16774 8.87183 2.26565 8.87183C2.36355 8.87183 2.44047 8.95104 2.44047 9.05186C2.44047 9.40472 2.72019 9.69996 3.06984 9.69996H3.58031C3.92297 9.69996 4.2097 9.41192 4.2097 9.05186C4.2097 8.95104 4.28662 8.87183 4.38452 8.87183C4.48243 8.87183 4.55935 8.95104 4.55935 9.05186C4.55236 9.60635 4.11877 10.06 3.58031 10.06Z" fill="#414042"/>
</svg>
