<svg width="20" height="15" viewBox="0 0 20 15" fill="none" xmlns="http://www.w3.org/2000/svg">
<path d="M10.0038 15C9.9209 15 9.83804 15 9.74765 14.9914C8.91149 14.9313 6.81734 14.6476 5.35595 13.4184C4.50472 12.6963 4 11.5015 4 10.2035V6.17198H4.37665V10.2035C4.37665 11.3639 4.82863 12.4298 5.58192 13.0659C7.00565 14.2693 9.15254 14.5101 9.77024 14.5616C9.92844 14.5702 10.0791 14.5702 10.2298 14.5616C10.855 14.5186 13.0094 14.2694 14.4331 13.0573C15.1789 12.4212 15.6309 11.3639 15.6309 10.2207V6.17198H16.0075V10.2207C16.0075 11.5015 15.5028 12.6877 14.6591 13.4012C13.1977 14.6476 11.096 14.9227 10.2599 14.9914C10.1695 15 10.0866 15 10.0038 15Z" fill="#414042"/>
<path d="M2.38049 12.3694H0.226074L0.904035 7.31501L1.69499 7.32361L2.38049 12.3694ZM0.662975 11.9396H1.93605L1.37107 7.75341H1.22041L0.662975 11.9396Z" fill="#414042"/>
<path d="M1.34838 7.74474C0.888867 7.74474 0.512207 7.31496 0.512207 6.79061C0.512207 6.26626 0.888867 5.83644 1.34838 5.83644C1.80789 5.83644 2.18452 6.26626 2.18452 6.79061C2.18452 7.31496 1.80789 7.74474 1.34838 7.74474ZM1.34838 6.26624C1.09226 6.26624 0.888855 6.49835 0.888855 6.79061C0.888855 7.08287 1.09226 7.31495 1.34838 7.31495C1.6045 7.31495 1.80788 7.08287 1.80788 6.79061C1.80788 6.49835 1.6045 6.26624 1.34838 6.26624Z" fill="#414042"/>
<path d="M1.5368 4.79687H1.16016V6.04329H1.5368V4.79687Z" fill="#414042"/>
<path d="M10.162 9.12028L0 4.40972L10.0038 0L20 4.40112L10.162 9.12028ZM1.01695 4.4183L10.1544 8.65612L18.9906 4.4183L10.0038 0.455584L1.01695 4.4183Z" fill="#414042"/>
</svg>
